# xmcd
#
# Track frame offsets:
#       150
#       14617
#       29750
#       45210
#       59142
#       72272
#       84980
#       99417
#       113175
#       126852
#       141095
#       155785
#       170915
#       184942
#
# Disc length: 2666 seconds
#
# Revision: 2
# Processed by: cddbd v1.4PL0 Copyright (c) Steve Scherf et al.
# Submitted via: CD-DA_X-Tractor v0.21
#
DISCID=cc0a680e
DTITLE=Blind Willie Johnson - The Soul Of A Man
DYEAR=1900
DGENRE=
TTITLE0=Praise God I'm Satisfied
TTITLE1=Dark Was The Night Cold Was The Ground
TTITLE2=I'm Gonna Run To The City Of Refuge
TTITLE3=Keep Your Lamp Trimmed And Burning
TTITLE4=Bye And Bye I'm Goin To See The King
TTITLE5=Sweeter As The Years Go By
TTITLE6=You'll Need Somebody On Your Bond
TTITLE7=When The War Was On
TTITLE8=Take Your Stand
TTITLE9=Trouble Will Soon Be Over
TTITLE10=The Soul Of A Man
TTITLE11=The Rain Don't Fall On Me
TTITLE12=Go With Me To That Land
TTITLE13=John The Revelator
EXTD=
EXTT0=
EXTT1=
EXTT2=
EXTT3=
EXTT4=
EXTT5=
EXTT6=
EXTT7=
EXTT8=
EXTT9=
EXTT10=
EXTT11=
EXTT12=
EXTT13=
PLAYORDER=
